<?xml version="1.0" standalone="no"?>
<!DOCTYPE svg PUBLIC "-//W3C//DTD SVG 20010904//EN"
 "http://www.w3.org/TR/2001/REC-SVG-20010904/DTD/svg10.dtd">
<svg version="1.0" xmlns="http://www.w3.org/2000/svg"
 width="405.000000pt" height="405.000000pt" viewBox="0 0 405.000000 405.000000"
 preserveAspectRatio="xMidYMid meet">
<metadata>
Created by potrace 1.14, written by Peter Selinger 2001-2017
</metadata>
<g transform="translate(0.000000,405.000000) scale(0.100000,-0.100000)"
fill="#000000" stroke="none">
<path d="M1789 3648 c-369 -639 -590 -1020 -616 -1060 -12 -21 -23 -40 -23
-42 0 -2 -23 -43 -51 -91 -28 -47 -49 -88 -47 -91 3 -2 444 -3 981 -2 l977 3
-163 280 c-187 319 -760 1311 -791 1367 -12 21 -24 38 -28 38 -3 0 -111 -181
-239 -402z"/>
<path d="M2726 2139 c-132 -31 -258 -134 -320 -260 -143 -293 16 -641 326
-714 340 -80 648 177 625 520 -15 220 -157 396 -362 450 -64 16 -206 19 -269
4z m280 -68 c135 -60 207 -204 207 -416 0 -227 -74 -370 -219 -424 -67 -25
-187 -28 -261 -6 -151 45 -236 198 -236 425 0 238 86 388 251 436 68 20 196
12 258 -15z"/>
<path d="M700 2120 c1 -8 17 -27 38 -41 27 -18 74 -84 175 -246 l137 -221 0
-182 c0 -179 0 -181 -25 -205 -13 -14 -29 -25 -35 -25 -5 0 -10 -7 -10 -15 0
-13 21 -15 130 -15 109 0 130 2 130 15 0 8 -7 15 -15 15 -8 0 -24 9 -35 20
-19 19 -20 33 -20 222 l0 201 77 121 c42 67 91 141 110 166 48 64 142 158 164
165 11 4 19 14 19 23 0 15 -14 17 -115 17 -101 0 -115 -2 -115 -17 0 -10 9
-18 23 -20 40 -6 23 -48 -93 -232 -99 -156 -114 -175 -125 -159 -32 48 -179
300 -190 327 -15 34 -5 66 20 66 8 0 15 8 15 18 0 15 -13 17 -130 17 -109 0
-130 -2 -130 -15z"/>
<path d="M1610 2118 c0 -10 6 -18 14 -18 8 0 22 -7 30 -16 14 -14 16 -67 16
-435 l0 -420 -30 -17 c-59 -33 -39 -42 95 -42 133 0 153 9 96 41 -18 11 -30
28 -34 49 -9 41 -9 155 -1 251 l7 74 106 0 c94 0 112 3 163 27 101 47 158 126
166 228 10 134 -68 244 -199 281 -27 7 -120 12 -237 13 -177 1 -192 0 -192
-16z m378 -43 c79 -33 111 -85 119 -189 9 -116 -28 -204 -97 -238 -48 -23
-123 -31 -170 -18 l-40 11 0 205 c0 122 4 213 10 225 9 16 22 19 76 19 36 0
81 -7 102 -15z"/>
<path d="M350 760 c0 -7 565 -10 1675 -10 1110 0 1675 3 1675 10 0 7 -565 10
-1675 10 -1110 0 -1675 -3 -1675 -10z"/>
<path d="M1630 226 l0 -156 30 0 31 0 -3 153 -3 152 -27 3 -28 3 0 -155z"/>
<path d="M2117 374 c-4 -4 -7 -74 -7 -156 l0 -148 35 0 35 0 0 71 c0 75 12 98
52 99 25 0 31 -16 32 -94 l2 -71 33 -3 33 -3 -4 97 c-4 86 -7 99 -27 115 -28
23 -69 24 -98 4 -22 -15 -22 -15 -25 37 -3 48 -5 53 -28 56 -14 2 -29 0 -33
-4z"/>
<path d="M670 215 l0 -146 33 3 32 3 0 140 0 140 -32 3 -33 3 0 -146z"/>
<path d="M1894 345 c-86 -44 -92 -207 -9 -261 31 -20 121 -20 169 0 33 14 35
17 25 39 -10 23 -13 23 -47 11 -57 -20 -90 -17 -119 12 -22 22 -25 32 -21 76
7 69 25 81 105 75 56 -4 63 -3 69 15 3 11 1 25 -5 31 -18 18 -132 20 -167 2z"/>
<path d="M2870 325 c0 -15 -6 -25 -14 -25 -15 0 -25 -27 -19 -47 3 -7 11 -13
19 -13 11 0 14 -16 14 -68 0 -85 16 -105 81 -100 36 2 45 7 47 25 3 18 -2 22
-30 25 -33 3 -33 3 -36 61 l-3 57 31 0 c27 0 30 3 30 30 0 27 -3 30 -30 30
-25 0 -30 4 -30 25 0 21 -5 25 -30 25 -25 0 -30 -4 -30 -25z"/>
<path d="M815 289 c-27 -17 -35 -29 -35 -62 0 -30 39 -61 92 -72 15 -4 28 -13
28 -21 0 -17 -61 -19 -90 -4 -15 8 -21 6 -30 -9 -13 -26 -13 -28 8 -36 67 -28
143 -21 162 15 28 52 2 90 -72 111 -24 6 -38 16 -38 26 0 13 8 14 50 9 41 -6
51 -4 57 9 3 9 1 21 -5 27 -16 16 -104 20 -127 7z"/>
<path d="M990 185 l0 -115 29 0 c29 0 29 0 33 71 4 77 19 99 65 99 13 0 23 6
23 14 0 8 3 21 6 30 8 22 -43 22 -74 0 -20 -14 -22 -14 -22 0 0 11 -10 16 -30
16 l-30 0 0 -115z"/>
<path d="M1188 293 c-28 -4 -34 -17 -19 -41 6 -10 21 -12 54 -7 40 6 47 4 56
-14 11 -20 9 -21 -37 -21 -64 0 -102 -28 -102 -74 0 -56 57 -86 117 -61 18 8
33 10 33 4 0 -5 14 -9 30 -9 l30 0 0 74 c0 83 -14 132 -40 146 -18 10 -69 11
-122 3z m102 -137 c0 -18 -38 -46 -63 -46 -20 0 -32 23 -23 45 7 21 86 21 86
1z"/>
<path d="M1431 287 c-34 -20 -50 -55 -51 -109 0 -38 6 -54 28 -79 24 -27 35
-31 79 -32 64 -1 109 24 93 52 -9 17 -13 18 -50 5 -43 -15 -90 -3 -90 23 0 10
19 13 76 13 l77 0 -6 46 c-3 27 -13 54 -25 66 -25 26 -98 34 -131 15z m99 -57
c10 -19 8 -20 -40 -20 -51 0 -60 6 -38 28 19 19 66 15 78 -8z"/>
<path d="M2403 293 c-17 -3 -23 -11 -23 -30 0 -24 2 -25 46 -18 30 4 50 2 60
-6 24 -20 16 -26 -43 -31 -43 -4 -61 -10 -75 -28 -53 -65 17 -139 99 -105 18
8 33 10 33 4 0 -5 14 -9 31 -9 l31 0 -4 96 c-3 86 -5 98 -27 115 -22 18 -71
23 -128 12z m97 -143 c0 -39 -81 -55 -88 -16 -5 24 14 36 56 36 25 0 32 -4 32
-20z"/>
<path d="M2600 150 l0 -150 30 0 c29 0 30 2 30 46 0 40 2 45 15 34 23 -19 92
-16 115 5 46 41 48 148 4 192 -27 27 -79 31 -112 7 -20 -14 -22 -14 -22 0 0
11 -10 16 -30 16 l-30 0 0 -150z m155 69 c23 -43 5 -99 -31 -99 -46 0 -64 17
-64 59 0 46 15 61 72 70 4 0 15 -13 23 -30z"/>
<path d="M3044 266 c-30 -30 -34 -41 -34 -84 0 -102 80 -143 193 -97 19 8 21
22 8 44 -7 11 -13 12 -23 4 -26 -21 -69 -24 -94 -8 -40 26 -28 34 54 37 l77 3
-1 39 c-2 55 -47 96 -105 96 -33 0 -47 -6 -75 -34z m116 -36 c10 -19 8 -20
-40 -20 -48 0 -50 1 -40 20 7 13 21 20 40 20 19 0 33 -7 40 -20z"/>
<path d="M3260 185 l0 -115 30 0 30 0 0 69 c0 61 3 72 22 85 12 9 33 16 45 16
19 0 23 5 23 30 0 26 -4 30 -27 30 -14 0 -35 -7 -45 -17 -17 -15 -18 -15 -18
0 0 12 -9 17 -30 17 l-30 0 0 -115z"/>
</g>
</svg>
